<?xml version="1.0" encoding="utf-8"?>
<!-- Generator: Adobe Illustrator 13.0.0, SVG Export Plug-In . SVG Version: 6.00 Build 14948)  -->
<!DOCTYPE svg PUBLIC "-//W3C//DTD SVG 1.1//EN" "http://www.w3.org/Graphics/SVG/1.1/DTD/svg11.dtd">
<svg version="1.1" id="Layer_1" xmlns="http://www.w3.org/2000/svg" xmlns:xlink="http://www.w3.org/1999/xlink" x="0px" y="0px"
	 width="1024px" height="1024px" viewBox="0 0 1024 1024" enable-background="new 0 0 1024 1024" xml:space="preserve">
<g>
	<g>
		<path fill="#FFFFFF" d="M582,297.629c13.277,0,24.079-10.802,24.079-24.078c0-13.276-10.802-24.078-24.079-24.078
			s-24.079,10.802-24.079,24.078C557.921,286.828,568.723,297.629,582,297.629z M442,297.629c13.277,0,24.079-10.802,24.079-24.078
			c0-13.276-10.802-24.078-24.079-24.078s-24.079,10.802-24.079,24.078C417.921,286.828,428.723,297.629,442,297.629z M512,186.629
			c13.277,0,24.079-10.802,24.079-24.078c0-13.276-10.802-24.078-24.079-24.078c-13.277,0-24.079,10.802-24.079,24.078
			C487.921,175.828,498.723,186.629,512,186.629z M755.966,406.9c-48.721-52.981-81.689-118.51-94.58-189.331l-6.75-37.049
			c-12.561-68.92-72.59-119.001-142.64-119.001c-5.651,0-11.231,0.331-16.73,0.961c-28.601,3.3-54.9,14.969-76.15,32.689
			c-25.33,21.141-43.47,50.891-49.751,85.351l-6.75,37.049c-0.499,2.741-1.029,5.48-1.589,8.2
			c-13.92,67.791-46.391,130.33-93.261,181.411c-54.149,59.02-87.179,137.719-87.13,224.14
			c0.09,151.56,100.931,278.6,239.271,318.279c1.04,0.301,2.07,0.44,3.08,0.44c5.889,0,11.009-4.741,11.009-11v-33.241
			c0-4.269,3.22-7.99,7.471-8.26c0.179-0.009,0.359-0.021,0.529-0.021c4.42,0,8,3.591,8,8.001v38.521
			c0,7.41,5.401,13.75,12.731,14.83c16.04,2.379,32.47,3.62,49.199,3.62c0.62,0,1.25-0.01,1.871-0.01
			c16.119-0.091,31.959-1.321,47.439-3.631c7.341-1.101,12.761-7.431,12.761-14.85v-38.201c0-4.269,3.22-7.99,7.47-8.26
			c0.181-0.009,0.36-0.021,0.53-0.021c4.42,0,8,3.591,8,8.001v33.44c0,6.259,5.12,11,11.01,11c1.021,0,2.061-0.151,3.101-0.45
			c138.189-39.911,239.26-167.35,239.26-318.391C843.366,544.639,810.226,465.899,755.966,406.9z M582,233.474
			c22.1,0,40.079,17.979,40.079,40.078c0,22.1-17.979,40.078-40.079,40.078c-22.099,0-40.079-17.978-40.079-40.078
			C541.921,251.453,559.901,233.474,582,233.474z M512,122.474c22.1,0,40.079,17.979,40.079,40.078
			c0,22.1-17.979,40.078-40.079,40.078c-22.099,0-40.079-17.978-40.079-40.078C471.921,140.453,489.901,122.474,512,122.474z
			 M442,233.474c22.1,0,40.079,17.979,40.079,40.078c0,22.1-17.979,40.078-40.079,40.078c-22.099,0-40.079-17.978-40.079-40.078
			C401.921,251.453,419.901,233.474,442,233.474z M533.555,854.225c-7.69,0.72-13.561,7.2-13.561,14.931v43.989
			c0,4.25-3.199,7.971-7.45,8.261c-4.65,0.31-8.55-3.381-8.55-7.98v-44.27c0-7.75-5.91-14.211-13.62-14.931
			c-116.54-10.899-207.76-108.99-207.76-228.37c0-96.666,59.785-179.356,144.393-213.12c4.207-1.68,6.997-5.714,6.997-10.244
			v-57.577c0-4.255,3.203-7.974,7.448-8.26c4.658-0.314,8.552,3.377,8.552,7.981v51.266c0,4.512,4.207,7.854,8.597,6.808
			c12.024-2.864,24.419-4.781,37.096-5.671c4.69-0.329,8.307-4.269,8.307-8.97V236.914c0-4.255,3.203-7.974,7.448-8.26
			c4.658-0.314,8.552,3.377,8.552,7.981v151.459c0,4.692,3.602,8.628,8.28,8.969c12.642,0.921,25.03,2.907,37.071,5.87
			c4.403,1.083,8.648-2.262,8.648-6.796v-51.223c0-4.255,3.202-7.974,7.447-8.26c4.658-0.314,8.553,3.377,8.553,7.981v58.374
			c0,4.497,2.75,8.509,6.911,10.21c83.391,34.078,143.68,116.324,144.459,210.706C742.364,744.194,650.755,843.305,533.555,854.225z
			"/>
	</g>
</g>
<rect fill="none" width="1024" height="1024"/>
<g>
	<defs>
		<path id="SVGID_1_" d="M478.946,442.43l-12.97,20.71l46.02,73.459l77,122.899l48.87,78h21.58c14.189,0,27.259-7.709,34.13-20.119
			c6.87-12.41,6.459-27.571-1.08-39.59l-147.45-235.36c-7.13-11.381-19.611-18.29-33.05-18.29
			C498.566,424.14,486.086,431.049,478.946,442.43"/>
	</defs>
	<use xlink:href="#SVGID_1_"  overflow="visible" fill="#FFFFFF"/>
	<clipPath id="SVGID_2_">
		<use xlink:href="#SVGID_1_"  overflow="visible"/>
	</clipPath>
	<rect x="465.976" y="424.14" clip-path="url(#SVGID_2_)" fill="#FFFFFF" width="234.47" height="313.359"/>
</g>
<g>
	<defs>
		<path id="SVGID_3_" d="M331.499,677.79c-7.53,12.019-7.94,27.18-1.069,39.59c6.869,12.41,19.939,20.119,34.119,20.119h253.32
			l-48.87-78H435.01l66.989-106.929l-46.03-73.46L331.499,677.79z"/>
	</defs>
	<use xlink:href="#SVGID_3_"  overflow="visible" fill="#FFFFFF"/>
	<clipPath id="SVGID_4_">
		<use xlink:href="#SVGID_3_"  overflow="visible"/>
	</clipPath>
	<rect x="323.559" y="479.11" clip-path="url(#SVGID_4_)" fill="#FFFFFF" width="294.31" height="258.389"/>
</g>
</svg>
